<svg width="16" height="16" viewBox="0 0 16 16" fill="none" xmlns="http://www.w3.org/2000/svg">
<path d="M6.45664 1.04708C7.11564 -0.186918 8.88364 -0.186918 9.54264 1.04708L15.6246 12.4251C15.7672 12.6917 15.8382 12.9907 15.8308 13.2929C15.8234 13.5951 15.7378 13.8903 15.5824 14.1496C15.427 14.4089 15.2071 14.6236 14.9441 14.7726C14.6811 14.9217 14.3839 15 14.0816 15.0001H1.91764C1.61532 15 1.31818 14.9217 1.05517 14.7726C0.792151 14.6236 0.572232 14.4089 0.416842 14.1496C0.261452 13.8903 0.175889 13.5951 0.168493 13.2929C0.161096 12.9907 0.232118 12.6917 0.374636 12.4251L6.45664 1.04708ZM8.21964 1.75408C8.19822 1.71439 8.16646 1.68124 8.12773 1.65813C8.089 1.63503 8.04474 1.62283 7.99964 1.62283C7.95454 1.62283 7.91028 1.63503 7.87155 1.65813C7.83282 1.68124 7.80106 1.71439 7.77964 1.75408L1.69764 13.1321C1.67726 13.1701 1.66709 13.2128 1.66811 13.256C1.66913 13.2991 1.6813 13.3413 1.70346 13.3784C1.72561 13.4154 1.75698 13.4461 1.79451 13.4674C1.83205 13.4888 1.87446 13.5 1.91764 13.5001H14.0816C14.1248 13.5 14.1672 13.4888 14.2048 13.4674C14.2423 13.4461 14.2737 13.4154 14.2958 13.3784C14.318 13.3413 14.3301 13.2991 14.3312 13.256C14.3322 13.2128 14.322 13.1701 14.3016 13.1321L8.21964 1.75408ZM8.74964 5.75008V8.25008C8.74964 8.44899 8.67062 8.63976 8.52997 8.78041C8.38931 8.92106 8.19855 9.00008 7.99964 9.00008C7.80072 9.00008 7.60996 8.92106 7.46931 8.78041C7.32865 8.63976 7.24964 8.44899 7.24964 8.25008V5.75008C7.24964 5.55117 7.32865 5.3604 7.46931 5.21975C7.60996 5.0791 7.80072 5.00008 7.99964 5.00008C8.19855 5.00008 8.38931 5.0791 8.52997 5.21975C8.67062 5.3604 8.74964 5.55117 8.74964 5.75008ZM8.99964 11.0001C8.99964 11.2653 8.89428 11.5197 8.70674 11.7072C8.51921 11.8947 8.26485 12.0001 7.99964 12.0001C7.73442 12.0001 7.48007 11.8947 7.29253 11.7072C7.10499 11.5197 6.99964 11.2653 6.99964 11.0001C6.99964 10.7349 7.10499 10.4805 7.29253 10.293C7.48007 10.1054 7.73442 10.0001 7.99964 10.0001C8.26485 10.0001 8.51921 10.1054 8.70674 10.293C8.89428 10.4805 8.99964 10.7349 8.99964 11.0001Z" fill="#D91E1E"/>
</svg>
