<svg width="16" height="16" viewBox="0 0 16 16" fill="none" xmlns="http://www.w3.org/2000/svg">
<path d="M6.55802 0.999797C6.67423 0.704397 6.87357 0.45142 7.13048 0.273292C7.38738 0.0951632 7.69016 0 8 0C8.30984 0 8.61262 0.0951632 8.86952 0.273292C9.12643 0.45142 9.32577 0.704397 9.44198 0.999797C10.5921 1.32511 11.6066 2.02973 12.3296 3.00545C13.0527 3.98117 13.4443 5.17403 13.4444 6.40083V10.158L14.8692 12.3562C14.9474 12.4767 14.9923 12.6167 14.9991 12.7613C15.0059 12.906 14.9744 13.0498 14.908 13.1775C14.8416 13.3052 14.7427 13.412 14.6219 13.4864C14.5011 13.5608 14.3629 13.6001 14.2221 13.6001H10.695C10.6013 14.2665 10.2773 14.8759 9.7824 15.3166C9.28747 15.7574 8.65469 16 8 16C7.34531 16 6.71253 15.7574 6.2176 15.3166C5.72266 14.8759 5.39869 14.2665 5.30504 13.6001H1.77788C1.63707 13.6001 1.4989 13.5608 1.3781 13.4864C1.25731 13.412 1.15842 13.3052 1.09199 13.1775C1.02556 13.0498 0.994085 12.906 1.00092 12.7613C1.00775 12.6167 1.05263 12.4767 1.13078 12.3562L2.55565 10.158V6.40083C2.55565 3.8219 4.25117 1.64933 6.55802 0.999797ZM6.90024 13.6001C6.98057 13.8342 7.12951 14.0369 7.32655 14.1803C7.52359 14.3236 7.75902 14.4006 8.00039 14.4006C8.24176 14.4006 8.47719 14.3236 8.67423 14.1803C8.87126 14.0369 9.02021 13.8342 9.10054 13.6001H6.89946H6.90024ZM8 2.40125C6.96862 2.40125 5.97948 2.82263 5.25019 3.5727C4.52089 4.32277 4.11118 5.34007 4.11118 6.40083V10.4004C4.11121 10.5584 4.06574 10.7129 3.98051 10.8444L3.23152 12.0002H12.7677L12.0187 10.8444C11.9338 10.7128 11.8886 10.5583 11.8888 10.4004V6.40083C11.8888 5.34007 11.4791 4.32277 10.7498 3.5727C10.0205 2.82263 9.03138 2.40125 8 2.40125Z" fill="#E0A42E"/>
</svg>
